<svg width="24" height="29" viewBox="0 0 24 29" fill="none" xmlns="http://www.w3.org/2000/svg">
<rect width="18.5806" height="24" transform="translate(5)" fill="#E0E7E6"/>
<path d="M18.1612 2H10.4193C9.39266 2 8.40807 2.52678 7.68212 3.46447C6.95617 4.40215 6.54834 5.67392 6.54834 7V17C6.54834 18.3261 6.95617 19.5979 7.68212 20.5355C8.40807 21.4732 9.39266 22 10.4193 22H18.1612C19.1879 22 20.1725 21.4732 20.8984 20.5355C21.6244 19.5979 22.0322 18.3261 22.0322 17V7C22.0322 5.67392 21.6244 4.40215 20.8984 3.46447C20.1725 2.52678 19.1879 2 18.1612 2V2ZM20.4838 17C20.4838 17.7956 20.2391 18.5587 19.8036 19.1213C19.368 19.6839 18.7772 20 18.1612 20H10.4193C9.80332 20 9.21256 19.6839 8.777 19.1213C8.34143 18.5587 8.09673 17.7956 8.09673 17V7C8.09673 6.20435 8.34143 5.44129 8.777 4.87868C9.21256 4.31607 9.80332 4 10.4193 4H18.1612C18.7772 4 19.368 4.31607 19.8036 4.87868C20.2391 5.44129 20.4838 6.20435 20.4838 7V17Z" fill="#07575B"/>
<rect width="18.5806" height="24" transform="translate(0 5)" fill="#E0E7E6"/>
<path d="M13.1612 7H5.41931C4.39266 7 3.40807 7.52678 2.68212 8.46447C1.95617 9.40215 1.54834 10.6739 1.54834 12V22C1.54834 23.3261 1.95617 24.5979 2.68212 25.5355C3.40807 26.4732 4.39266 27 5.41931 27H13.1612C14.1879 27 15.1725 26.4732 15.8984 25.5355C16.6244 24.5979 17.0322 23.3261 17.0322 22V12C17.0322 10.6739 16.6244 9.40215 15.8984 8.46447C15.1725 7.52678 14.1879 7 13.1612 7V7ZM15.4838 22C15.4838 22.7956 15.2391 23.5587 14.8036 24.1213C14.368 24.6839 13.7772 25 13.1612 25H5.41931C4.80332 25 4.21256 24.6839 3.777 24.1213C3.34143 23.5587 3.09673 22.7956 3.09673 22V12C3.09673 11.2044 3.34143 10.4413 3.777 9.87868C4.21256 9.31607 4.80332 9 5.41931 9H13.1612C13.7772 9 14.368 9.31607 14.8036 9.87868C15.2391 10.4413 15.4838 11.2044 15.4838 12V22Z" fill="#07575B"/>
</svg>
