<svg width="32" height="40" viewBox="0 0 32 40" fill="none" xmlns="http://www.w3.org/2000/svg">
<path d="M28.9028 6.18257C28.5613 5.28461 27.8719 4.63779 27.013 4.40865C26.5618 4.28756 26.0814 4.28954 25.6214 4.41278C25.6181 4.41366 25.615 4.41528 25.6117 4.41616C25.189 2.96059 24.0437 1.93375 22.6459 1.93307C22.4048 1.93322 22.1642 1.96477 21.9308 2.02732C21.0862 2.25362 20.3984 2.86916 19.9711 3.6898C19.1908 3.19275 18.2874 3.00356 17.4428 3.22986C17.2092 3.29246 16.9852 3.38539 16.775 3.50617C15.5654 4.20472 15.0872 5.66736 15.4485 7.13921C15.4452 7.14009 15.4417 7.14024 15.4384 7.14112C14.9784 7.26436 14.5608 7.50382 14.2325 7.8324C13.6024 8.46129 13.3287 9.36615 13.4818 10.3146C13.6044 11.0735 13.9949 11.8137 14.5806 12.4002C15.2086 13.0299 15.9894 13.4111 16.7739 13.5116C16.7696 14.0324 16.8227 14.5546 16.9598 15.0661C17.7038 17.8428 19.6155 17.5612 20.184 17.4088C20.7487 17.2575 21.2309 16.9502 21.7411 16.6248C22.2254 16.3156 22.7254 15.9957 23.2323 15.8599C23.7394 15.724 24.3328 15.7507 24.9062 15.7767C25.5109 15.804 26.082 15.8285 26.6467 15.6772C27.4742 15.4554 28.0695 14.9025 28.3219 14.1203C28.5096 13.5384 28.4927 12.8762 28.2675 12.036C28.1304 11.5243 27.9152 11.0457 27.6513 10.5968C28.2811 10.1181 28.766 9.39784 28.9947 8.53932C29.2079 7.73744 29.176 6.90112 28.9028 6.18257ZM21.1913 5.64254C21.1911 4.52968 21.8426 3.62742 22.6468 3.62706C23.4513 3.62744 24.1028 4.5307 24.1035 5.64263C24.1027 6.75495 23.4522 7.65775 22.6478 7.65737C21.8428 7.65774 21.1914 6.75521 21.1913 5.64254ZM17.6214 4.97284C18.3173 4.57105 19.3329 5.02682 19.8897 5.99052C20.446 6.95437 20.3332 8.06164 19.6365 8.46344C18.9401 8.86597 17.9251 8.40946 17.3684 7.44649C16.8116 6.48357 16.925 5.37555 17.6214 4.97284ZM15.778 11.2041C15.0815 10.5073 14.9234 9.5349 15.428 9.03152C15.9318 8.52779 16.9043 8.68436 17.601 9.38192C18.299 10.0791 18.4558 11.0519 17.9518 11.5549C17.4478 12.0583 16.4749 11.9024 15.778 11.2041ZM22.7931 14.2245C20.574 14.8191 19.2888 17.2194 18.5944 14.6279C17.8999 12.0359 19.9141 9.24509 21.3556 8.85963C22.7971 8.47418 25.9365 9.88248 26.631 12.4745C27.3255 15.0662 25.0122 13.6299 22.7931 14.2245ZM27.358 8.10125C27.1036 9.05445 26.3395 9.67555 25.6508 9.49193C24.9628 9.30812 24.6121 8.38677 24.8682 7.43469C25.1228 6.48222 25.8866 5.86039 26.5748 6.04475C27.2637 6.22832 27.6128 7.14952 27.358 8.10125Z" fill="#010002"/>
<path d="M17.1492 23.7379C16.5869 22.9589 15.7536 22.5126 14.8647 22.5135C14.3975 22.5133 13.9339 22.6396 13.5216 22.8777C13.5186 22.8794 13.516 22.8818 13.5131 22.8835C12.728 21.5869 11.356 20.8915 10.0057 21.2526C9.77279 21.3151 9.54857 21.4079 9.33927 21.5287C8.58204 21.9659 8.07702 22.7385 7.87669 23.6417C6.99429 23.3636 6.07271 23.4147 5.31548 23.8519C5.10602 23.9728 4.91376 24.1205 4.74198 24.2916C3.75436 25.2794 3.67099 26.816 4.40089 28.1442C4.39794 28.1459 4.39461 28.1469 4.39166 28.1486C3.97928 28.3867 3.63785 28.7261 3.40577 29.1285C2.95989 29.899 2.92978 30.8439 3.32308 31.7204C3.63795 32.4217 4.20677 33.0356 4.92425 33.4505C5.69385 33.8963 6.54672 34.0623 7.33045 33.9564C7.4611 34.4605 7.64759 34.9512 7.91236 35.4098C9.34967 37.8993 11.1233 37.1325 11.6331 36.8382C12.1394 36.5459 12.5255 36.1243 12.9342 35.6779C13.322 35.2539 13.7221 34.8155 14.1766 34.5531C14.6312 34.2906 15.2113 34.1628 15.7719 34.0395C16.3631 33.9093 16.921 33.7852 17.4273 33.4929C18.1693 33.0645 18.6011 32.3764 18.6425 31.5555C18.6733 30.9449 18.4855 30.3096 18.0506 29.5563C17.7857 29.0976 17.4539 28.691 17.0828 28.3257C17.5673 27.7003 17.8492 26.879 17.8479 25.9906C17.8463 25.1608 17.5991 24.3612 17.1492 23.7379ZM9.5607 25.2121C9.2725 24.1372 9.66828 23.0971 10.445 22.8886C11.2221 22.6808 12.0852 23.3846 12.3737 24.4585C12.6608 25.5331 12.2661 26.5735 11.489 26.7814C10.7115 26.9901 9.8488 26.2869 9.5607 25.2121ZM5.93913 25.4892C6.50729 24.921 7.60623 25.0984 8.3935 25.8851C9.18029 26.6722 9.35791 27.7709 8.78899 28.3393C8.22046 28.9084 7.12189 28.7301 6.33499 27.9441C5.54793 27.1581 5.37068 26.0584 5.93913 25.4892ZM5.77129 31.9853C4.91813 31.4925 4.51377 30.5941 4.87094 29.9773C5.22717 29.3603 6.207 29.2599 7.06053 29.7533C7.91521 30.2462 8.31842 31.1451 7.96182 31.7614C7.60524 32.3782 6.62519 32.4794 5.77129 31.9853ZM13.3291 33.0871C11.3395 34.2358 10.7193 36.887 9.37787 34.5635C8.03613 32.2395 9.25946 29.0225 10.552 28.2771C11.8446 27.5317 15.2416 28.0795 16.5833 30.4034C17.9249 32.7271 15.3187 31.9384 13.3291 33.0871ZM16.1536 25.991C16.1546 26.9776 15.5773 27.7753 14.8645 27.7762C14.1524 27.7767 13.5752 26.9775 13.5761 25.9916C13.5755 25.0057 14.1524 24.2073 14.8648 24.2073C15.5778 24.2063 16.1534 25.0058 16.1536 25.991Z" fill="#010002"/>
</svg>
