<svg width="18" height="18" viewBox="0 0 18 18" fill="none" xmlns="http://www.w3.org/2000/svg">
<path d="M8.99988 1.5C7.40858 1.5 5.88246 2.13214 4.75724 3.25736C3.63202 4.38258 2.99988 5.9087 2.99988 7.5C2.99988 11.55 8.28738 16.125 8.51238 16.32C8.64823 16.4362 8.82111 16.5 8.99988 16.5C9.17864 16.5 9.35153 16.4362 9.48738 16.32C9.74988 16.125 14.9999 11.55 14.9999 7.5C14.9999 5.9087 14.3677 4.38258 13.2425 3.25736C12.1173 2.13214 10.5912 1.5 8.99988 1.5V1.5ZM8.99988 14.7375C7.40238 13.2375 4.49988 10.005 4.49988 7.5C4.49988 6.30653 4.97398 5.16193 5.8179 4.31802C6.66181 3.47411 7.8064 3 8.99988 3C10.1934 3 11.3379 3.47411 12.1819 4.31802C13.0258 5.16193 13.4999 6.30653 13.4999 7.5C13.4999 10.005 10.5974 13.245 8.99988 14.7375ZM8.99988 4.5C8.40653 4.5 7.82652 4.67595 7.33317 5.00559C6.83982 5.33524 6.4553 5.80377 6.22824 6.35195C6.00118 6.90013 5.94177 7.50333 6.05752 8.08527C6.17328 8.66721 6.459 9.20176 6.87856 9.62132C7.29811 10.0409 7.83266 10.3266 8.41461 10.4424C8.99655 10.5581 9.59975 10.4987 10.1479 10.2716C10.6961 10.0446 11.1646 9.66006 11.4943 9.16671C11.8239 8.67336 11.9999 8.09334 11.9999 7.5C11.9999 6.70435 11.6838 5.94129 11.1212 5.37868C10.5586 4.81607 9.79553 4.5 8.99988 4.5ZM8.99988 9C8.70321 9 8.4132 8.91203 8.16652 8.7472C7.91985 8.58238 7.72759 8.34811 7.61406 8.07403C7.50053 7.79994 7.47082 7.49834 7.5287 7.20737C7.58658 6.91639 7.72944 6.64912 7.93922 6.43934C8.149 6.22956 8.41627 6.0867 8.70724 6.02882C8.99821 5.97094 9.29981 6.00065 9.5739 6.11418C9.84799 6.22771 10.0823 6.41997 10.2471 6.66665C10.4119 6.91332 10.4999 7.20333 10.4999 7.5C10.4999 7.89783 10.3418 8.27936 10.0605 8.56066C9.77923 8.84197 9.3977 9 8.99988 9Z" fill="#106C4B"/>
</svg>
