<svg width="28" height="19" viewBox="0 0 28 19" fill="none" xmlns="http://www.w3.org/2000/svg">
<path d="M26.4444 7.77778H1.55556C0.622222 7.77778 0 8.4 0 9.33333C0 10.2667 0.622222 10.8889 1.55556 10.8889H26.4444C27.3778 10.8889 28 10.2667 28 9.33333C28 8.4 27.3778 7.77778 26.4444 7.77778ZM1.55556 3.11111H26.4444C27.3778 3.11111 28 2.48889 28 1.55556C28 0.622222 27.3778 0 26.4444 0H1.55556C0.622222 0 0 0.622222 0 1.55556C0 2.48889 0.622222 3.11111 1.55556 3.11111ZM26.4444 15.5556H1.55556C0.622222 15.5556 0 16.1778 0 17.1111C0 18.0444 0.622222 18.6667 1.55556 18.6667H26.4444C27.3778 18.6667 28 18.0444 28 17.1111C28 16.1778 27.3778 15.5556 26.4444 15.5556Z" fill="#07575B"/>
</svg>
